<?xml version="1.0" encoding="UTF-8"?>
<svg width="700pt" height="700pt" version="1.1" viewBox="0 0 700 700" xmlns="http://www.w3.org/2000/svg" xmlns:xlink="http://www.w3.org/1999/xlink">
 <defs>
  <symbol id="k" overflow="visible">
   <path d="m12.219-0.73438c-0.63672 0.33594-1.2969 0.58594-1.9844 0.75-0.67969 0.16406-1.3867 0.25-2.125 0.25-2.2109 0-3.9648-0.61719-5.2656-1.8594-1.293-1.2383-1.9375-2.9219-1.9375-5.0469s0.64453-3.8008 1.9375-5.0312c1.3008-1.2383 3.0547-1.8594 5.2656-1.8594 0.73828 0 1.4453 0.085938 2.125 0.25 0.6875 0.16797 1.3477 0.41406 1.9844 0.73438v2.75c-0.63672-0.42578-1.2656-0.73828-1.8906-0.9375-0.61719-0.20703-1.2617-0.3125-1.9375-0.3125-1.2305 0-2.1953 0.39062-2.8906 1.1719-0.69922 0.78125-1.0469 1.8594-1.0469 3.2344s0.34766 2.4609 1.0469 3.25c0.69531 0.78125 1.6602 1.1719 2.8906 1.1719 0.67578 0 1.3203-0.097656 1.9375-0.29688 0.625-0.20703 1.2539-0.53125 1.8906-0.96875z"/>
  </symbol>
  <symbol id="d" overflow="visible">
   <path d="m8.9375-7.25c-0.28125-0.13281-0.5625-0.23438-0.84375-0.29688-0.27344-0.0625-0.54297-0.09375-0.8125-0.09375-0.82422 0-1.4609 0.26562-1.9062 0.79688-0.4375 0.52344-0.65625 1.2734-0.65625 2.25v4.5938h-3.1875v-9.9688h3.1875v1.6406c0.40625-0.65625 0.875-1.1328 1.4062-1.4375 0.53125-0.30078 1.1719-0.45312 1.9219-0.45312 0.10156 0 0.21875 0.007812 0.34375 0.015625 0.125 0.011719 0.30469 0.03125 0.54688 0.0625z"/>
  </symbol>
  <symbol id="a" overflow="visible">
   <path d="m11.484-5.0156v0.90625h-7.4531c0.082031 0.75 0.35156 1.3125 0.8125 1.6875 0.45703 0.375 1.1016 0.5625 1.9375 0.5625 0.67578 0 1.3633-0.097656 2.0625-0.29688 0.70703-0.19531 1.4297-0.5 2.1719-0.90625v2.4531c-0.75 0.29297-1.5078 0.51172-2.2656 0.65625-0.75 0.14453-1.5078 0.21875-2.2656 0.21875-1.8047 0-3.2031-0.45703-4.2031-1.375-1-0.92578-1.5-2.2188-1.5-3.875 0-1.625 0.48828-2.8984 1.4688-3.8281 0.98828-0.9375 2.3438-1.4062 4.0625-1.4062 1.5625 0 2.8125 0.47656 3.75 1.4219 0.94531 0.94922 1.4219 2.2109 1.4219 3.7812zm-3.2812-1.0625c0-0.60156-0.17969-1.0859-0.53125-1.4531-0.34375-0.375-0.80469-0.5625-1.375-0.5625-0.61719 0-1.1172 0.17969-1.5 0.53125-0.38672 0.34375-0.63281 0.83984-0.73438 1.4844z"/>
  </symbol>
  <symbol id="o" overflow="visible">
   <path d="m6-4.4844c-0.66797 0-1.168 0.11719-1.5 0.34375-0.33594 0.21875-0.5 0.54688-0.5 0.98438 0 0.40625 0.13281 0.72656 0.40625 0.95312 0.26953 0.23047 0.64453 0.34375 1.125 0.34375 0.59375 0 1.0938-0.21094 1.5-0.64062 0.41406-0.4375 0.625-0.97656 0.625-1.625v-0.35938zm4.875-1.2031v5.6875h-3.2188v-1.4844c-0.42969 0.61719-0.91406 1.0625-1.4531 1.3438-0.53125 0.26953-1.1797 0.40625-1.9375 0.40625-1.0312 0-1.8711-0.30078-2.5156-0.90625-0.64844-0.60156-0.96875-1.3828-0.96875-2.3438 0-1.1758 0.39844-2.0352 1.2031-2.5781 0.8125-0.55078 2.0781-0.82812 3.7969-0.82812h1.875v-0.25c0-0.5-0.19922-0.86328-0.59375-1.0938-0.39844-0.23828-1.0156-0.35938-1.8594-0.35938-0.6875 0-1.3281 0.070312-1.9219 0.20312-0.58594 0.13672-1.125 0.33984-1.625 0.60938v-2.4219c0.6875-0.16406 1.375-0.28906 2.0625-0.375 0.6875-0.09375 1.375-0.14062 2.0625-0.14062 1.7891 0 3.0859 0.35938 3.8906 1.0781 0.80078 0.71094 1.2031 1.8594 1.2031 3.4531z"/>
  </symbol>
  <symbol id="c" overflow="visible">
   <path d="m5.0156-12.797v2.8281h3.2812v2.2812h-3.2812v4.2188c0 0.46875 0.085937 0.78906 0.26562 0.95312 0.1875 0.15625 0.55469 0.23438 1.1094 0.23438h1.625v2.2812h-2.7344c-1.25 0-2.1406-0.25781-2.6719-0.78125-0.52344-0.53125-0.78125-1.4258-0.78125-2.6875v-4.2188h-1.5938v-2.2812h1.5938v-2.8281z"/>
  </symbol>
  <symbol id="n" overflow="visible">
   <path d="m8.3125-8.5156v-5.3438h3.2031v13.859h-3.2031v-1.4375c-0.4375 0.58594-0.92188 1.0156-1.4531 1.2969-0.52344 0.26953-1.1328 0.40625-1.8281 0.40625-1.2305 0-2.2422-0.48828-3.0312-1.4688-0.79297-0.97656-1.1875-2.2383-1.1875-3.7812 0-1.5312 0.39453-2.7852 1.1875-3.7656 0.78906-0.97656 1.8008-1.4688 3.0312-1.4688 0.6875 0 1.2969 0.14062 1.8281 0.42188 0.53125 0.27344 1.0156 0.69922 1.4531 1.2812zm-2.0938 6.4531c0.67578 0 1.1914-0.24219 1.5469-0.73438 0.36328-0.5 0.54688-1.2266 0.54688-2.1875 0-0.94531-0.18359-1.6641-0.54688-2.1562-0.35547-0.5-0.87109-0.75-1.5469-0.75-0.67969 0-1.1992 0.25-1.5625 0.75-0.35547 0.49219-0.53125 1.2109-0.53125 2.1562 0 0.96094 0.17578 1.6875 0.53125 2.1875 0.36328 0.49219 0.88281 0.73438 1.5625 0.73438z"/>
  </symbol>
  <symbol id="m" overflow="visible">
   <path d="m6.8438-2.0625c0.67578 0 1.1914-0.24219 1.5469-0.73438 0.36328-0.5 0.54688-1.2266 0.54688-2.1875 0-0.94531-0.18359-1.6641-0.54688-2.1562-0.35547-0.5-0.87109-0.75-1.5469-0.75-0.6875 0-1.2148 0.25-1.5781 0.75-0.36719 0.5-0.54688 1.2188-0.54688 2.1562 0 0.94922 0.17969 1.6719 0.54688 2.1719 0.36328 0.5 0.89062 0.75 1.5781 0.75zm-2.125-6.4531c0.4375-0.58203 0.92188-1.0078 1.4531-1.2812 0.53906-0.28125 1.1562-0.42188 1.8438-0.42188 1.2266 0 2.2383 0.49219 3.0312 1.4688 0.78906 0.98047 1.1875 2.2344 1.1875 3.7656 0 1.543-0.39844 2.8047-1.1875 3.7812-0.79297 0.98047-1.8047 1.4688-3.0312 1.4688-0.6875 0-1.3047-0.13672-1.8438-0.40625-0.53125-0.28125-1.0156-0.71094-1.4531-1.2969v1.4375h-3.1875v-13.859h3.1875z"/>
  </symbol>
  <symbol id="l" overflow="visible">
   <path d="m0.21875-9.9688h3.1875l2.6875 6.7656 2.2812-6.7656h3.1875l-4.2031 10.906c-0.41797 1.1133-0.90625 1.8906-1.4688 2.3281-0.5625 0.44531-1.3047 0.67188-2.2188 0.67188h-1.8438v-2.0938h1c0.53125 0 0.92188-0.089844 1.1719-0.26562 0.25-0.16797 0.44141-0.47656 0.57812-0.92188l0.09375-0.26562z"/>
  </symbol>
  <symbol id="g" overflow="visible">
   <path d="m1.6719-13.297h3.4375v4.8594l4.9375-4.8594h3.9688l-6.3906 6.2969 7.0625 7h-4.2969l-5.2812-5.2344v5.2344h-3.4375z"/>
  </symbol>
  <symbol id="f" overflow="visible">
   <path d="m1.5312-9.9688h3.1875v9.9688h-3.1875zm0-3.8906h3.1875v2.6094h-3.1875z"/>
  </symbol>
  <symbol id="e" overflow="visible">
   <path d="m1.4219-3.875v-6.0938h3.2031v1c0 0.53125-0.007812 1.2109-0.015625 2.0312v1.625c0 0.80469 0.019531 1.3828 0.0625 1.7344 0.039063 0.35547 0.11328 0.61719 0.21875 0.78125 0.125 0.19922 0.28906 0.35547 0.5 0.46875 0.21875 0.11719 0.46094 0.17188 0.73438 0.17188 0.66406 0 1.1875-0.25391 1.5625-0.76562 0.38281-0.50781 0.57812-1.2188 0.57812-2.125v-4.9219h3.1875v9.9688h-3.1875v-1.4375c-0.48047 0.58594-0.99219 1.0156-1.5312 1.2969-0.53125 0.26953-1.125 0.40625-1.7812 0.40625-1.1484 0-2.0234-0.35156-2.625-1.0625-0.60547-0.70703-0.90625-1.7344-0.90625-3.0781z"/>
  </symbol>
  <symbol id="v" overflow="visible">
   <path d="m0.09375-13.297h12.25v2.5938h-4.4062v10.703h-3.4375v-10.703h-4.4062z"/>
  </symbol>
  <symbol id="j" overflow="visible">
   <path d="m11.562-6.0781v6.0781h-3.2188v-4.625c0-0.875-0.023438-1.4727-0.0625-1.7969-0.03125-0.33203-0.09375-0.57812-0.1875-0.73438-0.125-0.20703-0.29688-0.36719-0.51562-0.48438-0.21094-0.11328-0.44922-0.17188-0.71875-0.17188-0.66797 0-1.1953 0.26172-1.5781 0.78125-0.375 0.51172-0.5625 1.2188-0.5625 2.125v4.9062h-3.1875v-13.859h3.1875v5.3438c0.47656-0.58203 0.98828-1.0078 1.5312-1.2812 0.53906-0.28125 1.1406-0.42188 1.7969-0.42188 1.1445 0 2.0156 0.35547 2.6094 1.0625 0.60156 0.71094 0.90625 1.7344 0.90625 3.0781z"/>
  </symbol>
  <symbol id="i" overflow="visible">
   <path d="m10.766-8.3125c0.40625-0.61328 0.88281-1.082 1.4375-1.4062 0.5625-0.33203 1.1758-0.5 1.8438-0.5 1.1445 0 2.0156 0.35547 2.6094 1.0625 0.60156 0.71094 0.90625 1.7344 0.90625 3.0781v6.0781h-3.2031v-5.2031-0.23438c0.007813-0.082031 0.015625-0.20312 0.015625-0.35938 0-0.70703-0.10547-1.2188-0.3125-1.5312-0.21094-0.32031-0.54688-0.48438-1.0156-0.48438-0.60547 0-1.0742 0.25-1.4062 0.75-0.32422 0.5-0.49219 1.2266-0.5 2.1719v4.8906h-3.2031v-5.2031c0-1.1016-0.10156-1.8125-0.29688-2.125-0.1875-0.32031-0.52344-0.48438-1-0.48438-0.61719 0-1.0898 0.25781-1.4219 0.76562-0.33594 0.5-0.5 1.2148-0.5 2.1406v4.9062h-3.2031v-9.9688h3.2031v1.4531c0.39453-0.5625 0.84375-0.98438 1.3438-1.2656 0.50781-0.28906 1.0703-0.4375 1.6875-0.4375 0.6875 0 1.2891 0.16797 1.8125 0.5 0.53125 0.33594 0.92969 0.80469 1.2031 1.4062z"/>
  </symbol>
  <symbol id="b" overflow="visible">
   <path d="m6.2812-7.9375c-0.71094 0-1.25 0.25781-1.625 0.76562-0.36719 0.51172-0.54688 1.2422-0.54688 2.1875 0 0.96094 0.17969 1.6953 0.54688 2.2031 0.375 0.51172 0.91406 0.76562 1.625 0.76562 0.6875 0 1.2109-0.25391 1.5781-0.76562 0.375-0.50781 0.5625-1.2422 0.5625-2.2031 0-0.94531-0.1875-1.6758-0.5625-2.1875-0.36719-0.50781-0.89062-0.76562-1.5781-0.76562zm0-2.2812c1.707 0 3.0469 0.46484 4.0156 1.3906 0.96875 0.92969 1.4531 2.2109 1.4531 3.8438 0 1.6484-0.48438 2.9336-1.4531 3.8594-0.96875 0.92969-2.3086 1.3906-4.0156 1.3906-1.7305 0-3.0781-0.46094-4.0469-1.3906-0.96875-0.92578-1.4531-2.2109-1.4531-3.8594 0-1.6328 0.48438-2.9141 1.4531-3.8438 0.96875-0.92578 2.3164-1.3906 4.0469-1.3906z"/>
  </symbol>
  <symbol id="h" overflow="visible">
   <path d="m11.562-6.0781v6.0781h-3.2188v-4.6406c0-0.86328-0.023438-1.457-0.0625-1.7812-0.03125-0.33203-0.09375-0.57812-0.1875-0.73438-0.125-0.20703-0.29688-0.36719-0.51562-0.48438-0.21094-0.11328-0.44922-0.17188-0.71875-0.17188-0.66797 0-1.1953 0.26172-1.5781 0.78125-0.375 0.51172-0.5625 1.2188-0.5625 2.125v4.9062h-3.1875v-9.9688h3.1875v1.4531c0.47656-0.58203 0.98828-1.0078 1.5312-1.2812 0.53906-0.28125 1.1406-0.42188 1.7969-0.42188 1.1445 0 2.0156 0.35547 2.6094 1.0625 0.60156 0.71094 0.90625 1.7344 0.90625 3.0781z"/>
  </symbol>
  <symbol id="u" overflow="visible">
   <path d="m8.3125-1.6875c-0.4375 0.58594-0.92188 1.0117-1.4531 1.2812-0.52344 0.27344-1.1328 0.40625-1.8281 0.40625-1.2188 0-2.2305-0.47656-3.0312-1.4375-0.79297-0.95703-1.1875-2.1797-1.1875-3.6719 0-1.4883 0.39453-2.707 1.1875-3.6562 0.80078-0.94531 1.8125-1.4219 3.0312-1.4219 0.69531 0 1.3047 0.13672 1.8281 0.40625 0.53125 0.27344 1.0156 0.69922 1.4531 1.2812v-1.4688h3.2031v8.9688c0 1.5938-0.50781 2.8125-1.5156 3.6562-1.0117 0.85156-2.4805 1.2812-4.4062 1.2812-0.61719 0-1.2148-0.046875-1.7969-0.14062-0.58594-0.09375-1.1719-0.24219-1.7656-0.4375v-2.4844c0.5625 0.32031 1.1094 0.5625 1.6406 0.71875 0.53906 0.15625 1.0781 0.23438 1.6094 0.23438 1.0508 0 1.8164-0.23047 2.2969-0.6875 0.48828-0.46094 0.73438-1.1719 0.73438-2.1406zm-2.0938-6.2031c-0.66797 0-1.1836 0.24609-1.5469 0.73438-0.36719 0.48047-0.54688 1.1641-0.54688 2.0469 0 0.91797 0.17578 1.6172 0.53125 2.0938 0.35156 0.46875 0.875 0.70312 1.5625 0.70312 0.66406 0 1.1797-0.24219 1.5469-0.73438 0.36328-0.48828 0.54688-1.1758 0.54688-2.0625 0-0.88281-0.18359-1.5664-0.54688-2.0469-0.36719-0.48828-0.88281-0.73438-1.5469-0.73438z"/>
  </symbol>
  <symbol id="t" overflow="visible">
   <path d="m8.0938-13.859v2.0938h-1.7656c-0.44922 0-0.76172 0.085937-0.9375 0.25-0.17969 0.16797-0.26562 0.44922-0.26562 0.84375v0.70312h2.7188v2.2812h-2.7188v7.6875h-3.1875v-7.6875h-1.5938v-2.2812h1.5938v-0.70312c0-1.082 0.30078-1.8828 0.90625-2.4062 0.60156-0.51953 1.5391-0.78125 2.8125-0.78125z"/>
  </symbol>
  <symbol id="s" overflow="visible">
   <path d="m1.6719-13.297h3.8281l4.8438 9.125v-9.125h3.25v13.297h-3.8281l-4.8438-9.125v9.125h-3.25z"/>
  </symbol>
  <symbol id="r" overflow="visible">
   <path d="m1.6719-13.297h5.6875c1.6953 0 2.9922 0.375 3.8906 1.125 0.90625 0.75 1.3594 1.8242 1.3594 3.2188 0 1.3984-0.45312 2.4688-1.3594 3.2188-0.89844 0.75-2.1953 1.125-3.8906 1.125h-2.25v4.6094h-3.4375zm3.4375 2.4844v3.7188h1.8906c0.66406 0 1.1758-0.16016 1.5312-0.48438 0.36328-0.32031 0.54688-0.78125 0.54688-1.375s-0.18359-1.0508-0.54688-1.375c-0.35547-0.32031-0.86719-0.48438-1.5312-0.48438z"/>
  </symbol>
  <symbol id="q" overflow="visible">
   <path d="m1.5312-9.9688h3.1875v9.7969c0 1.332-0.32422 2.3477-0.96875 3.0469-0.63672 0.70703-1.5625 1.0625-2.7812 1.0625h-1.5781v-2.0938h0.5625c0.60156 0 1.0156-0.13672 1.2344-0.40625 0.22656-0.27344 0.34375-0.80859 0.34375-1.6094zm0-3.8906h3.1875v2.6094h-3.1875z"/>
  </symbol>
  <symbol id="p" overflow="visible">
   <path d="m9.5938-9.6562v2.5938c-0.4375-0.28906-0.875-0.50781-1.3125-0.65625-0.4375-0.14453-0.89062-0.21875-1.3594-0.21875-0.88672 0-1.5781 0.26172-2.0781 0.78125-0.49219 0.52344-0.73438 1.2461-0.73438 2.1719 0 0.9375 0.24219 1.668 0.73438 2.1875 0.5 0.52344 1.1914 0.78125 2.0781 0.78125 0.5 0 0.97266-0.070313 1.4219-0.21875 0.44531-0.15625 0.86328-0.37891 1.25-0.67188v2.6094c-0.5 0.1875-1.0117 0.32812-1.5312 0.42188-0.51172 0.09375-1.0234 0.14062-1.5312 0.14062-1.8047 0-3.2148-0.46094-4.2344-1.3906-1.0117-0.92578-1.5156-2.2109-1.5156-3.8594 0-1.6328 0.50391-2.9141 1.5156-3.8438 1.0195-0.92578 2.4297-1.3906 4.2344-1.3906 0.51953 0 1.0312 0.046875 1.5312 0.14062 0.50781 0.09375 1.0195 0.23438 1.5312 0.42188z"/>
  </symbol>
 </defs>
 <g>
  <path d="m339.98 387.12c-10.93 0-20.336 6.5625-24.539 15.945l-39.984 0.003907c-3.4297-42.613-26.68-79.703-60.527-102.01l38.066-69.633h32.402c6.0391 0 10.938-4.8984 10.938-10.938 0-6.043-4.8984-10.941-10.938-10.941l-77.777-0.003906c-6.0391 0-10.938 4.8984-10.938 10.941 0 6.0391 4.8984 10.938 10.938 10.938h20.449l-32.32 59.117c-16.824-7.5273-35.438-11.75-55.031-11.75-74.559 0-135.22 60.66-135.22 135.21 0 47.43 24.562 89.199 61.617 113.34l-56.18 0.003906c-6.0391 0-10.938 4.8984-10.938 10.938 0 6.043 4.8984 10.938 10.938 10.938h129.78c70.875 0 129.14-54.82 134.74-124.28h39.984c4.2031 9.3867 13.609 15.949 24.539 15.949 14.824 0 26.883-12.062 26.883-26.887 0-14.828-12.059-26.887-26.883-26.887zm-199.26 41.473c-8.0391 0-14.582-6.5391-14.582-14.586 0-8.0391 6.543-14.578 14.582-14.578 8.043 0 14.586 6.5391 14.586 14.578 0 8.043-6.5391 14.586-14.586 14.586z"/>
  <path d="m564.79 278.79c-17.113 0-33.48 3.2305-48.562 9.0547-0.53516-1.8672-1.125-3.7148-1.6328-5.5898-1.5859-5.8281-7.6016-9.2539-13.426-7.6875-5.8281 1.5898-9.2695 7.5977-7.6836 13.426 0.86719 3.1953 1.8438 6.3477 2.7852 9.5117-39.875 23.543-66.695 66.938-66.695 116.5 0 47.43 24.562 89.199 61.617 113.34h-56.18c-6.043 0-10.938 4.8984-10.938 10.938 0 6.043 4.8945 10.938 10.938 10.938h129.78c74.559 0 135.21-60.656 135.21-135.21-0.003906-74.555-60.664-135.21-135.22-135.21zm0 149.8c-8.0469 0-14.582-6.5352-14.582-14.582s6.5352-14.582 14.582-14.582 14.582 6.5352 14.582 14.582c0 8.043-6.5352 14.582-14.582 14.582z"/>
  <path d="m600.05 119.46c6.4648 0 12.812-1.2266 18.863-3.6523 25.977-10.41 38.637-40.012 28.227-65.988-7.7578-19.355-26.246-31.867-47.105-31.867h-69.625c-1.2109 0-2.3398 0.59766-3.0195 1.6016-0.67578 1.0039-0.8125 2.2773-0.36328 3.3984l25.902 64.625c7.7578 19.367 26.254 31.883 47.121 31.883z"/>
  <path d="m447.6 222.64-63.176-72.711 75.465-20.449-18.152 54.289c-4.793 14.336-0.078125 30.312 11.73 39.75l35.688 28.527c4 3.1953 9.0195 4.9609 14.133 4.9609 6.9297 0 13.379-3.1016 17.703-8.5039 3.7734-4.7266 5.4883-10.637 4.8164-16.656-0.67188-6.0117-3.6406-11.398-8.3672-15.18l-30.73-24.562 30.156-90.215c3.707-11.078 2.875-22.934-2.3398-33.383-5.2148-10.453-14.188-18.246-25.262-21.949-8.1406-2.7188-17.012-2.9805-25.301-0.73828l-115.39 31.266c-26.734 7.2422-45.047 31.641-44.539 59.336l2.4883 135.54-25.527 71.957c-4.5859 12.938 2.2031 27.195 15.137 31.785 2.6914 0.95312 5.4922 1.4375 8.3242 1.4375 10.516 0 19.941-6.6641 23.457-16.578l23.113-65.156c3.6055-10.168 5.332-20.797 5.1367-31.586l-1.3242-72.039 55.129 63.449-34.812 68.754c-3.0039 5.9297-3.5195 12.684-1.4453 19 2.0703 6.3203 6.4805 11.449 12.41 14.457 3.5234 1.7852 7.2969 2.6875 11.227 2.6875 9.4453 0 17.961-5.2305 22.223-13.652l34.844-68.816c9.1758-18.102 6.5-39.695-6.8164-55.02z"/>
  <use y="603.914062" xlink:href="#k"/>
  <use x="13.378906" y="603.914062" xlink:href="#d"/>
  <use x="22.367188" y="603.914062" xlink:href="#a"/>
  <use x="34.730469" y="603.914062" xlink:href="#o"/>
  <use x="47.03125" y="603.914062" xlink:href="#c"/>
  <use x="55.746094" y="603.914062" xlink:href="#a"/>
  <use x="68.109375" y="603.914062" xlink:href="#n"/>
  <use x="87.503906" y="603.914062" xlink:href="#m"/>
  <use x="100.554688" y="603.914062" xlink:href="#l"/>
  <use x="118.785156" y="603.914062" xlink:href="#g"/>
  <use x="132.910156" y="603.914062" xlink:href="#f"/>
  <use x="139.15625" y="603.914062" xlink:href="#a"/>
  <use x="151.519531" y="603.914062" xlink:href="#e"/>
  <use x="170.84375" y="603.914062" xlink:href="#v"/>
  <use x="183.28125" y="603.914062" xlink:href="#j"/>
  <use x="196.257812" y="603.914062" xlink:href="#f"/>
  <use x="208.851562" y="603.914062" xlink:href="#g"/>
  <use x="222.976562" y="603.914062" xlink:href="#f"/>
  <use x="229.226562" y="603.914062" xlink:href="#i"/>
  <use x="254.566406" y="603.914062" xlink:href="#k"/>
  <use x="267.945313" y="603.914062" xlink:href="#e"/>
  <use x="280.921875" y="603.914062" xlink:href="#b"/>
  <use x="293.445313" y="603.914062" xlink:href="#h"/>
  <use x="306.425781" y="603.914062" xlink:href="#u"/>
  <use y="622.144531" xlink:href="#t"/>
  <use x="7.929688" y="622.144531" xlink:href="#d"/>
  <use x="16.921875" y="622.144531" xlink:href="#b"/>
  <use x="29.445313" y="622.144531" xlink:href="#i"/>
  <use x="54.785156" y="622.144531" xlink:href="#c"/>
  <use x="63.5" y="622.144531" xlink:href="#j"/>
  <use x="76.476563" y="622.144531" xlink:href="#a"/>
  <use x="95.1875" y="622.144531" xlink:href="#s"/>
  <use x="110.441406" y="622.144531" xlink:href="#b"/>
  <use x="122.964844" y="622.144531" xlink:href="#e"/>
  <use x="135.945312" y="622.144531" xlink:href="#h"/>
  <use x="155.269531" y="622.144531" xlink:href="#r"/>
  <use x="168.628906" y="622.144531" xlink:href="#d"/>
  <use x="177.617188" y="622.144531" xlink:href="#b"/>
  <use x="190.140625" y="622.144531" xlink:href="#q"/>
  <use x="196.390625" y="622.144531" xlink:href="#a"/>
  <use x="208.753906" y="622.144531" xlink:href="#p"/>
  <use x="219.558594" y="622.144531" xlink:href="#c"/>
 </g>
</svg>
